<?xml version="1.0" encoding="UTF-8" standalone="no"?><!DOCTYPE svg PUBLIC "-//W3C//DTD SVG 1.1//EN" "http://www.w3.org/Graphics/SVG/1.1/DTD/svg11.dtd"><!-- Generated by graphviz version 2.40.1 (20161225.0304)
 --><!-- Title: %0 Pages: 1 --><svg xmlns="http://www.w3.org/2000/svg" xmlns:xlink="http://www.w3.org/1999/xlink" width="976pt" height="404pt" viewBox="0.00 0.00 976.10 404.00">
<g id="graph0" class="graph" transform="scale(1 1) rotate(0) translate(4 400)">
<title>%0</title>
<polygon fill="#ffffff" stroke="transparent" points="-4,4 -4,-400 972.1035,-400 972.1035,4 -4,4"/>
<!-- [root] aws_default_vpc.default&#45;vpc (expand) -->
<g id="node1" class="node">
<title>[root] aws_default_vpc.default-vpc (expand)</title>
<polygon fill="none" stroke="#000000" points="363.8427,-108 185.6475,-108 185.6475,-72 363.8427,-72 363.8427,-108"/>
<text text-anchor="middle" x="274.7451" y="-85.8" font-family="Times,serif" font-size="14.00" fill="#000000">aws_default_vpc.default-vpc</text>
</g>
<!-- [root] provider[&quot;registry.terraform.io/hashicorp/aws&quot;] -->
<g id="node7" class="node">
<title>[root] provider["registry.terraform.io/hashicorp/aws"]</title>
<polygon fill="none" stroke="#000000" points="274.7451,-36 -.2453,-18 274.7451,0 549.7356,-18 274.7451,-36"/>
<text text-anchor="middle" x="274.7451" y="-13.8" font-family="Times,serif" font-size="14.00" fill="#000000">provider["registry.terraform.io/hashicorp/aws"]</text>
</g>
<!-- [root] aws_default_vpc.default&#45;vpc (expand)&#45;&gt;[root] provider[&quot;registry.terraform.io/hashicorp/aws&quot;] -->
<g id="edge1" class="edge">
<title>[root] aws_default_vpc.default-vpc (expand)-&gt;[root] provider["registry.terraform.io/hashicorp/aws"]</title>
<path fill="none" stroke="#000000" d="M274.7451,-71.8314C274.7451,-64.131 274.7451,-54.9743 274.7451,-46.4166"/>
<polygon fill="#000000" stroke="#000000" points="278.2452,-46.4132 274.7451,-36.4133 271.2452,-46.4133 278.2452,-46.4132"/>
</g>
<!-- [root] aws_instance.http&#45;server (expand) -->
<g id="node2" class="node">
<title>[root] aws_instance.http-server (expand)</title>
<polygon fill="none" stroke="#000000" points="464.0175,-252 309.4727,-252 309.4727,-216 464.0175,-216 464.0175,-252"/>
<text text-anchor="middle" x="386.7451" y="-229.8" font-family="Times,serif" font-size="14.00" fill="#000000">aws_instance.http-server</text>
</g>
<!-- [root] aws_security_group.http&#45;server&#45;sg (expand) -->
<g id="node3" class="node">
<title>[root] aws_security_group.http-server-sg (expand)</title>
<polygon fill="none" stroke="#000000" points="267.7291,-180 57.7611,-180 57.7611,-144 267.7291,-144 267.7291,-180"/>
<text text-anchor="middle" x="162.7451" y="-157.8" font-family="Times,serif" font-size="14.00" fill="#000000">aws_security_group.http-server-sg</text>
</g>
<!-- [root] aws_instance.http&#45;server (expand)&#45;&gt;[root] aws_security_group.http&#45;server&#45;sg (expand) -->
<g id="edge2" class="edge">
<title>[root] aws_instance.http-server (expand)-&gt;[root] aws_security_group.http-server-sg (expand)</title>
<path fill="none" stroke="#000000" d="M330.5096,-215.9243C299.6212,-205.9959 261.1356,-193.6255 228.8196,-183.2382"/>
<polygon fill="#000000" stroke="#000000" points="229.5951,-179.8112 219.0038,-180.0831 227.453,-186.4754 229.5951,-179.8112"/>
</g>
<!-- [root] data.aws_subnets.default&#45;subnets (expand) -->
<g id="node4" class="node">
<title>[root] data.aws_subnets.default-subnets (expand)</title>
<polygon fill="none" stroke="#000000" points="487.8515,-180 285.6387,-180 285.6387,-144 487.8515,-144 487.8515,-180"/>
<text text-anchor="middle" x="386.7451" y="-157.8" font-family="Times,serif" font-size="14.00" fill="#000000">data.aws_subnets.default-subnets</text>
</g>
<!-- [root] aws_instance.http&#45;server (expand)&#45;&gt;[root] data.aws_subnets.default&#45;subnets (expand) -->
<g id="edge3" class="edge">
<title>[root] aws_instance.http-server (expand)-&gt;[root] data.aws_subnets.default-subnets (expand)</title>
<path fill="none" stroke="#000000" d="M386.7451,-215.8314C386.7451,-208.131 386.7451,-198.9743 386.7451,-190.4166"/>
<polygon fill="#000000" stroke="#000000" points="390.2452,-190.4132 386.7451,-180.4133 383.2452,-190.4133 390.2452,-190.4132"/>
</g>
<!-- [root] var.http&#45;server&#45;key&#45;pair -->
<g id="node8" class="node">
<title>[root] var.http-server-key-pair</title>
<polygon fill="none" stroke="#000000" points="649.559,-180 505.9312,-180 505.9312,-144 655.559,-144 655.559,-174 649.559,-180"/>
<polyline fill="none" stroke="#000000" points="649.559,-180 649.559,-174 "/>
<polyline fill="none" stroke="#000000" points="655.559,-174 649.559,-174 "/>
<text text-anchor="middle" x="580.7451" y="-157.8" font-family="Times,serif" font-size="14.00" fill="#000000">var.http-server-key-pair</text>
</g>
<!-- [root] aws_instance.http&#45;server (expand)&#45;&gt;[root] var.http&#45;server&#45;key&#45;pair -->
<g id="edge4" class="edge">
<title>[root] aws_instance.http-server (expand)-&gt;[root] var.http-server-key-pair</title>
<path fill="none" stroke="#000000" d="M435.6995,-215.8314C462.1071,-206.0306 494.8708,-193.8709 522.5737,-183.5894"/>
<polygon fill="#000000" stroke="#000000" points="523.9854,-186.7988 532.1428,-180.038 521.5498,-180.2362 523.9854,-186.7988"/>
</g>
<!-- [root] aws_security_group.http&#45;server&#45;sg (expand)&#45;&gt;[root] aws_default_vpc.default&#45;vpc (expand) -->
<g id="edge5" class="edge">
<title>[root] aws_security_group.http-server-sg (expand)-&gt;[root] aws_default_vpc.default-vpc (expand)</title>
<path fill="none" stroke="#000000" d="M191.0074,-143.8314C205.2003,-134.7074 222.5733,-123.539 237.8087,-113.7449"/>
<polygon fill="#000000" stroke="#000000" points="239.9727,-116.5146 246.4918,-108.1628 236.1874,-110.6263 239.9727,-116.5146"/>
</g>
<!-- [root] data.aws_subnets.default&#45;subnets (expand)&#45;&gt;[root] aws_default_vpc.default&#45;vpc (expand) -->
<g id="edge6" class="edge">
<title>[root] data.aws_subnets.default-subnets (expand)-&gt;[root] aws_default_vpc.default-vpc (expand)</title>
<path fill="none" stroke="#000000" d="M358.4828,-143.8314C344.2899,-134.7074 326.9169,-123.539 311.6816,-113.7449"/>
<polygon fill="#000000" stroke="#000000" points="313.3029,-110.6263 302.9984,-108.1628 309.5175,-116.5146 313.3029,-110.6263"/>
</g>
<!-- [root] output.aws&#45;instance&#45;all&#45;details -->
<g id="node5" class="node">
<title>[root] output.aws-instance-all-details</title>
<polygon fill="none" stroke="#000000" points="293.6854,-324 111.8048,-324 111.8048,-288 299.6854,-288 299.6854,-318 293.6854,-324"/>
<polyline fill="none" stroke="#000000" points="293.6854,-324 293.6854,-318 "/>
<polyline fill="none" stroke="#000000" points="299.6854,-318 293.6854,-318 "/>
<text text-anchor="middle" x="205.7451" y="-301.8" font-family="Times,serif" font-size="14.00" fill="#000000">output.aws-instance-all-details</text>
</g>
<!-- [root] output.aws&#45;instance&#45;all&#45;details&#45;&gt;[root] aws_instance.http&#45;server (expand) -->
<g id="edge7" class="edge">
<title>[root] output.aws-instance-all-details-&gt;[root] aws_instance.http-server (expand)</title>
<path fill="none" stroke="#000000" d="M251.4191,-287.8314C275.8419,-278.1162 306.0917,-266.0831 331.7935,-255.8592"/>
<polygon fill="#000000" stroke="#000000" points="333.4015,-258.9864 341.3996,-252.038 330.8141,-252.4821 333.4015,-258.9864"/>
</g>
<!-- [root] output.httpserver&#45;link -->
<g id="node6" class="node">
<title>[root] output.httpserver-link</title>
<polygon fill="none" stroke="#000000" points="449.4446,-324 318.0456,-324 318.0456,-288 455.4446,-288 455.4446,-318 449.4446,-324"/>
<polyline fill="none" stroke="#000000" points="449.4446,-324 449.4446,-318 "/>
<polyline fill="none" stroke="#000000" points="455.4446,-318 449.4446,-318 "/>
<text text-anchor="middle" x="386.7451" y="-301.8" font-family="Times,serif" font-size="14.00" fill="#000000">output.httpserver-link</text>
</g>
<!-- [root] output.httpserver&#45;link&#45;&gt;[root] aws_instance.http&#45;server (expand) -->
<g id="edge8" class="edge">
<title>[root] output.httpserver-link-&gt;[root] aws_instance.http-server (expand)</title>
<path fill="none" stroke="#000000" d="M386.7451,-287.8314C386.7451,-280.131 386.7451,-270.9743 386.7451,-262.4166"/>
<polygon fill="#000000" stroke="#000000" points="390.2452,-262.4132 386.7451,-252.4133 383.2452,-262.4133 390.2452,-262.4132"/>
</g>
<!-- [root] provider[&quot;registry.terraform.io/hashicorp/aws&quot;] (close) -->
<g id="node9" class="node">
<title>[root] provider["registry.terraform.io/hashicorp/aws"] (close)</title>
<ellipse fill="none" stroke="#000000" cx="720.7451" cy="-306" rx="247.2168" ry="18"/>
<text text-anchor="middle" x="720.7451" y="-301.8" font-family="Times,serif" font-size="14.00" fill="#000000">[root] provider["registry.terraform.io/hashicorp/aws"] (close)</text>
</g>
<!-- [root] provider[&quot;registry.terraform.io/hashicorp/aws&quot;] (close)&#45;&gt;[root] aws_instance.http&#45;server (expand) -->
<g id="edge9" class="edge">
<title>[root] provider["registry.terraform.io/hashicorp/aws"] (close)-&gt;[root] aws_instance.http-server (expand)</title>
<path fill="none" stroke="#000000" d="M641.5918,-288.937C591.2107,-278.0764 525.9178,-264.0013 474.0348,-252.8169"/>
<polygon fill="#000000" stroke="#000000" points="474.6911,-249.3781 464.1781,-250.6921 473.216,-256.2209 474.6911,-249.3781"/>
</g>
<!-- [root] root -->
<g id="node10" class="node">
<title>[root] root</title>
<ellipse fill="none" stroke="#000000" cx="386.7451" cy="-378" rx="50.9823" ry="18"/>
<text text-anchor="middle" x="386.7451" y="-373.8" font-family="Times,serif" font-size="14.00" fill="#000000">[root] root</text>
</g>
<!-- [root] root&#45;&gt;[root] output.aws&#45;instance&#45;all&#45;details -->
<g id="edge10" class="edge">
<title>[root] root-&gt;[root] output.aws-instance-all-details</title>
<path fill="none" stroke="#000000" d="M352.7004,-364.4574C326.8272,-354.1652 290.7039,-339.7957 260.7471,-327.8793"/>
<polygon fill="#000000" stroke="#000000" points="261.8439,-324.5488 251.2584,-324.1047 259.2565,-331.0531 261.8439,-324.5488"/>
</g>
<!-- [root] root&#45;&gt;[root] output.httpserver&#45;link -->
<g id="edge11" class="edge">
<title>[root] root-&gt;[root] output.httpserver-link</title>
<path fill="none" stroke="#000000" d="M386.7451,-359.8314C386.7451,-352.131 386.7451,-342.9743 386.7451,-334.4166"/>
<polygon fill="#000000" stroke="#000000" points="390.2452,-334.4132 386.7451,-324.4133 383.2452,-334.4133 390.2452,-334.4132"/>
</g>
<!-- [root] root&#45;&gt;[root] provider[&quot;registry.terraform.io/hashicorp/aws&quot;] (close) -->
<g id="edge12" class="edge">
<title>[root] root-&gt;[root] provider["registry.terraform.io/hashicorp/aws"] (close)</title>
<path fill="none" stroke="#000000" d="M430.4098,-368.5873C481.2877,-357.6196 566.6732,-339.2131 631.7138,-325.1924"/>
<polygon fill="#000000" stroke="#000000" points="632.5241,-328.5982 641.562,-323.0694 631.049,-321.7554 632.5241,-328.5982"/>
</g>
</g>
</svg>